<svg id="Layer_1" data-name="Layer 1" xmlns="http://www.w3.org/2000/svg" viewBox="0 0 273.01 100.71"><path d="M572,350.6v7.6h14.8a1.51,1.51,0,0,1,1.5,1.51v4a1.5,1.5,0,0,1-1.5,1.5H572v49.31c0,12.3-6.5,19.8-17.5,19.8a18.6,18.6,0,0,1-7.08-1.25,1.5,1.5,0,0,1-.91-1.4l.06-3.78a1.5,1.5,0,0,1,2-1.4,17.31,17.31,0,0,0,5,.73c6.6,0,10.4-4.5,10.4-12.6V365.2H554a1.5,1.5,0,0,1-1.5-1.5v-4a1.51,1.51,0,0,1,1.5-1.51h9.9v-7.7c0-10.7,6.7-16.9,18.1-16.9a22.15,22.15,0,0,1,6.22.85,1.49,1.49,0,0,1,1.08,1.44v3.61a1.5,1.5,0,0,1-1.84,1.47,21.25,21.25,0,0,0-4.56-.47C575.71,340.5,572,343.9,572,350.6Z" transform="translate(-546.52 -333.6)"/><path d="M590.13,392.37c0-12.11,9-21.33,21-21.33S632,380.26,632,392.37s-9,21.33-20.92,21.33S590.13,404.49,590.13,392.37Zm21,14.36c7.8,0,13.7-5.81,13.7-14.36s-5.9-14.44-13.7-14.44-13.69,5.89-13.69,14.44S603.24,406.73,611.12,406.73Zm-3.9-51.45a1.52,1.52,0,0,1,1.33-.67h5.06a1.51,1.51,0,0,1,1.33.67l7.22,8.71c.5.58.25,1.24-.58,1.24h-4a1.64,1.64,0,0,1-1.41-.66L611,358.26,606,364.57a1.65,1.65,0,0,1-1.41.66h-4c-.83,0-1.08-.66-.58-1.24Z" transform="translate(-546.52 -333.6)"/><path d="M639.68,392.37c0-12.11,9-21.33,21-21.33s20.92,9.22,20.92,21.33-9,21.33-20.92,21.33S639.68,404.49,639.68,392.37Zm21,14.36c7.8,0,13.7-5.81,13.7-14.36s-5.9-14.44-13.7-14.44S647,383.82,647,392.37,652.79,406.73,660.67,406.73Zm-3.9-51.45a1.52,1.52,0,0,1,1.33-.67h5.06a1.51,1.51,0,0,1,1.33.67l7.22,8.71c.5.58.25,1.24-.58,1.24h-4a1.63,1.63,0,0,1-1.41-.66l-5.15-6.31-5.06,6.31a1.65,1.65,0,0,1-1.41.66h-4c-.83,0-1.08-.66-.58-1.24Z" transform="translate(-546.52 -333.6)"/><path d="M685.74,408.81a5,5,0,1,1,10,0,5,5,0,0,1-10,0Z" transform="translate(-546.52 -333.6)"/><path d="M703.17,392.29A20.78,20.78,0,0,1,724.42,371a19.5,19.5,0,0,1,15.35,6.89,1.2,1.2,0,0,1,0,1.75l-2.91,2.73a1.19,1.19,0,0,1-1.9,0,13.09,13.09,0,0,0-10.3-4.48c-8.21,0-14.19,6-14.19,14.36s6,14.44,14.36,14.44A12.89,12.89,0,0,0,735,402.42a1.3,1.3,0,0,1,2-.17l2.9,2.82a1.11,1.11,0,0,1,0,1.66,19.31,19.31,0,0,1-15.43,7C712.3,413.7,703.17,404.49,703.17,392.29Z" transform="translate(-546.52 -333.6)"/><path d="M746.25,392.37c0-12.11,8.13-21.33,19.83-21.33,7,0,12.12,3.24,15,8.39l.17-6.23c0-.75.33-1.16,1.08-1.16h4.81a1,1,0,0,1,1.16,1.16v38.34a1.05,1.05,0,0,1-1.16,1.17h-4.81c-.75,0-1.08-.42-1.08-1.17l-.17-6.05c-3,5.06-8.05,8.21-15,8.21C754.38,413.7,746.25,404.57,746.25,392.37Zm21.16,14.44c8,0,13.53-5.72,13.53-14.35s-5.56-14.53-13.53-14.53-13.86,5.89-13.86,14.44S759.36,406.81,767.41,406.81Z" transform="translate(-546.52 -333.6)"/><path d="M804.1,403.58V378.1h-5.23a1.18,1.18,0,0,1-1.25-1.25V373.2a1.11,1.11,0,0,1,1.25-1.16h5.23v-9.63a1,1,0,0,1,1.16-1.16h5.23c.74,0,1.08.42,1.08,1.16V372h6.8a1,1,0,0,1,1.16,1.16v3.65a1.11,1.11,0,0,1-1.16,1.25h-6.8v24.48c0,3,1.32,4.15,3.73,4.15.66,0,1.74-.08,2.57-.17,1.16-.08,1.58.34,1.58,1.17v3.48c0,1.58-3.4,2-5.73,2C807.91,413.2,804.1,410.3,804.1,403.58Z" transform="translate(-546.52 -333.6)"/></svg>